HIERARCHY
ROOT hip
{
	OFFSET 0.000000 0.000000 0.000000 
	CHANNELS 6 Xposition Yposition Zposition Xrotation Zrotation Yrotation
	JOINT abdomen
	{
		OFFSET 0.000000 3.402643 0.000000 
		CHANNELS 3 Xrotation Zrotation Yrotation
		JOINT chest
		{
			OFFSET 0.000000 8.438565 -0.680529 
			CHANNELS 3 Xrotation Zrotation Yrotation
			JOINT neck
			{
				OFFSET 0.000000 10.207942 -0.272212 
				CHANNELS 3 Xrotation Zrotation Yrotation
				JOINT head
				{
					OFFSET 0.000000 3.130431 0.000000 
					CHANNELS 3 Xrotation Zrotation Yrotation
					End Site
					{
						OFFSET 0.000000 3.130435 0.000000 
					}
				}
			}
			JOINT lCollar
			{
				OFFSET 3.470700 6.669187 -0.816635 
				CHANNELS 3 Yrotation Zrotation Xrotation
				JOINT lShldr
				{
					OFFSET 3.198488 0.000000 0.000000 
					CHANNELS 3 Zrotation Yrotation Xrotation
					JOINT lForeArm
					{
						OFFSET 10.139888 0.000000 0.000000 
						CHANNELS 3 Yrotation Zrotation Xrotation
						JOINT lHand
						{
							OFFSET 8.370511 0.000000 0.000000 
							CHANNELS 3 Zrotation Yrotation Xrotation
							End Site
							{
								OFFSET 4.083176 0.000000 0.000000 
							}
						}
					}
				}
			}
			JOINT rCollar
			{
				OFFSET -3.470700 6.669187 -0.816635 
				CHANNELS 3 Yrotation Zrotation Xrotation
				JOINT rShldr
				{
					OFFSET -3.198488 0.000000 0.000000 
					CHANNELS 3 Zrotation Yrotation Xrotation
					JOINT rForeArm
					{
						OFFSET -10.139888 0.000000 0.000000 
						CHANNELS 3 Yrotation Zrotation Xrotation
						JOINT rHand
						{
							OFFSET -8.370511 0.000000 0.000000 
							CHANNELS 3 Zrotation Yrotation Xrotation
							End Site
							{
								OFFSET -4.083176 0.000000 0.000000 
							}
						}
					}
				}
			}
		}
	}
	JOINT lThigh
	{
		OFFSET 5.308129 -1.633274 1.361059 
		CHANNELS 3 Xrotation Zrotation Yrotation
		JOINT lShin
		{
			OFFSET -2.041588 -20.007561 0.000000 
			CHANNELS 3 Xrotation Zrotation Yrotation
			JOINT lFoot
			{
				OFFSET 0.000000 -19.190928 -1.224953 
				CHANNELS 3 Xrotation Yrotation Zrotation
				End Site
				{
					OFFSET 0.000000 -2.449906 4.627600 
				}
			}
		}
	}
	JOINT rThigh
	{
		OFFSET -5.308129 -1.633274 1.361059 
		CHANNELS 3 Xrotation Zrotation Yrotation
		JOINT rShin
		{
			OFFSET 2.041588 -20.007561 0.000000 
			CHANNELS 3 Xrotation Zrotation Yrotation
			JOINT rFoot
			{
				OFFSET 0.000000 -19.190928 -1.224953 
				CHANNELS 3 Xrotation Yrotation Zrotation
				End Site
				{
					OFFSET 0.000000 -2.449906 4.627600 
				}
			}
		}
	}
}
MOTION
Frames: 6
Frame Time: 0.011111
44.528408 47.449753 -3.163041 15.826407 4.244033 -83.773590 22.034269 -7.754790 6.232573 -12.037987 2.953493 1.864836 -5.182585 -16.716120 -16.220163 5.673962 41.978821 -33.309002 12.413046 -14.960623 4.251975 -6.007625 -37.601315 -24.242510 -47.823654 7.432959 6.348767 6.992188 16.005859 -58.835194 -6.427974 8.898234 2.089853 1.650307 55.161354 -63.792450 57.060547 -9.451069 10.121628 -7.001954 -15.996095 106.152351 -50.944279 27.157646 -20.707644 75.000519 -3.367149 -5.466223 -30.357098 1.675311 2.044740 -24.669487 3.690330 -2.306997 50.510464 4.722435 3.868116 -26.515636 10.619752 4.706474 
43.996075 47.500107 -2.289162 14.482559 4.527234 -84.264114 22.354639 -8.859130 5.431851 -12.069676 3.265854 1.691960 -5.137716 -16.472906 -16.264071 5.918546 41.480949 -33.237793 12.413046 -14.960623 4.251975 -6.078693 -38.196667 -24.461401 -47.585323 7.365862 6.248942 6.992188 16.005859 -59.557858 -6.427974 8.898234 2.089853 0.965873 55.466488 -66.242554 56.412441 -9.348619 9.849253 -7.001954 -15.996095 103.925781 -50.058735 26.267847 -21.196211 71.609123 -3.591465 -5.288741 -28.459650 1.640605 1.670874 -24.220121 1.591342 -1.211118 50.155354 4.742496 3.842842 -26.737579 10.844689 4.838564 
43.434654 47.489788 -1.459384 13.545814 4.527074 -85.015976 22.777130 -9.603519 4.998475 -12.021817 3.380825 1.609114 -4.997764 -16.091379 -16.265610 6.062320 41.003059 -33.079136 12.413046 -14.960623 4.251975 -5.771911 -38.598507 -24.035463 -47.440441 7.325400 6.195235 6.992188 16.005859 -59.753166 -6.427974 8.898234 2.089853 0.729033 55.287945 -67.364647 56.126102 -9.302351 9.730962 -7.001954 -15.996095 103.007813 -48.862640 26.073454 -21.782991 68.126740 -3.825459 -5.080895 -26.277102 0.871982 0.961285 -23.545128 0.185458 -0.096422 49.998211 4.742426 3.836465 -27.104282 10.611437 4.740408 
42.854156 47.437553 -0.598329 13.271362 4.882390 -86.121017 22.377434 -9.544077 4.987805 -11.854793 3.217386 1.611324 -4.423764 -15.877637 -16.333315 5.923668 40.682667 -33.047558 12.413046 -14.960623 4.251975 -5.438884 -38.463036 -22.911924 -47.544456 7.358105 6.239407 6.992188 16.005859 -59.313709 -6.427974 8.898234 2.089853 0.572990 55.022373 -67.234589 55.956238 -9.273306 9.655492 -7.001954 -15.996095 103.251953 -48.084179 26.542675 -22.775343 64.583870 -4.029464 -4.874600 -24.491138 0.075785 0.380430 -23.419390 -0.332087 1.093619 50.078060 4.725299 3.841530 -27.412697 9.663962 4.236864 
42.235813 47.325581 0.267419 13.354735 5.210649 -87.199310 21.891785 -8.874029 5.178414 -11.551300 3.131356 1.638326 -4.114984 -16.336065 -16.421202 6.236509 40.694382 -32.950317 12.413046 -14.960623 4.251975 -5.417662 -38.638885 -22.602592 -47.460873 7.329316 6.204861 6.992188 16.005859 -59.694569 -6.427974 8.898234 2.089853 -0.471842 55.204483 -68.963608 55.309784 -9.161105 9.379733 -7.001954 -15.996095 101.894531 -47.224720 27.372746 -23.895939 61.343201 -4.196072 -4.655988 -23.974371 -0.806829 -0.037608 -23.353621 -0.566449 1.727244 50.531422 4.705470 3.880380 -27.542044 8.457269 3.586342 
41.549278 47.244576 1.095633 12.013931 5.021488 -87.781982 22.128365 -9.576098 4.307686 -11.357990 3.413776 1.434921 -3.883835 -17.035423 -16.406185 7.009555 40.971748 -32.533241 12.413046 -14.960623 4.251975 -5.407495 -38.814701 -23.004570 -47.347134 7.297781 6.160808 6.992188 16.005859 -60.856678 -6.427974 8.898234 2.089853 -1.422327 55.464581 -70.435318 54.855186 -9.080817 9.200135 -7.001954 -15.996095 100.771484 -44.600010 26.678055 -24.015612 58.404346 -4.352134 -4.454332 -25.077923 -2.293597 -0.587453 -23.051680 -2.733890 1.352569 51.487213 4.660052 3.936884 -27.673870 7.644258 3.140709 
